<svg width="50" height="50" viewBox="0 0 50 50" fill="none" xmlns="http://www.w3.org/2000/svg">
<rect width="50" height="50" rx="2.08333" fill="#1E1D47"/>
<path d="M15.4982 25.068C15.9899 25.1596 16.394 25.4055 16.7107 25.8055C17.0274 26.2055 17.1857 26.6638 17.1857 27.1805C17.1857 27.6471 17.069 28.0596 16.8357 28.418C16.6107 28.768 16.2815 29.043 15.8482 29.243C15.4149 29.443 14.9024 29.543 14.3107 29.543H10.5482V20.818H14.1482C14.7399 20.818 15.2482 20.9138 15.6732 21.1055C16.1065 21.2971 16.4315 21.5638 16.6482 21.9055C16.8732 22.2471 16.9857 22.6346 16.9857 23.068C16.9857 23.5763 16.8482 24.0013 16.5732 24.343C16.3065 24.6846 15.9482 24.9263 15.4982 25.068ZM12.2982 24.418H13.8982C14.3149 24.418 14.6357 24.3263 14.8607 24.143C15.0857 23.9513 15.1982 23.6805 15.1982 23.3305C15.1982 22.9805 15.0857 22.7096 14.8607 22.518C14.6357 22.3263 14.3149 22.2305 13.8982 22.2305H12.2982V24.418ZM14.0607 28.118C14.4857 28.118 14.8149 28.018 15.0482 27.818C15.2899 27.618 15.4107 27.3346 15.4107 26.968C15.4107 26.593 15.2857 26.3013 15.0357 26.093C14.7857 25.8763 14.4482 25.768 14.0232 25.768H12.2982V28.118H14.0607ZM23.0804 29.543L21.1554 26.143H20.3304V29.543H18.5804V20.818H21.8554C22.5304 20.818 23.1054 20.9388 23.5804 21.1805C24.0554 21.4138 24.4096 21.7346 24.6429 22.143C24.8846 22.543 25.0054 22.993 25.0054 23.493C25.0054 24.068 24.8388 24.5888 24.5054 25.0555C24.1721 25.5138 23.6763 25.8305 23.0179 26.0055L25.1054 29.543H23.0804ZM20.3304 24.8305H21.7929C22.2679 24.8305 22.6221 24.718 22.8554 24.493C23.0888 24.2596 23.2054 23.9388 23.2054 23.5305C23.2054 23.1305 23.0888 22.8221 22.8554 22.6055C22.6221 22.3805 22.2679 22.268 21.7929 22.268H20.3304V24.8305ZM29.6007 29.6305C28.9924 29.6305 28.4424 29.5263 27.9507 29.318C27.4674 29.1096 27.0841 28.8096 26.8007 28.418C26.5174 28.0263 26.3716 27.5638 26.3632 27.0305H28.2382C28.2632 27.3888 28.3882 27.6721 28.6132 27.8805C28.8466 28.0888 29.1632 28.193 29.5632 28.193C29.9716 28.193 30.2924 28.0971 30.5257 27.9055C30.7591 27.7055 30.8757 27.4471 30.8757 27.1305C30.8757 26.8721 30.7966 26.6596 30.6382 26.493C30.4799 26.3263 30.2799 26.1971 30.0382 26.1055C29.8049 26.0055 29.4799 25.8971 29.0632 25.7805C28.4966 25.6138 28.0341 25.4513 27.6757 25.293C27.3257 25.1263 27.0216 24.8805 26.7632 24.5555C26.5132 24.2221 26.3882 23.7805 26.3882 23.2305C26.3882 22.7138 26.5174 22.2638 26.7757 21.8805C27.0341 21.4971 27.3966 21.2055 27.8632 21.0055C28.3299 20.7971 28.8632 20.693 29.4632 20.693C30.3632 20.693 31.0924 20.9138 31.6507 21.3555C32.2174 21.7888 32.5299 22.3971 32.5882 23.1805H30.6632C30.6466 22.8805 30.5174 22.6346 30.2757 22.443C30.0424 22.243 29.7299 22.143 29.3382 22.143C28.9966 22.143 28.7216 22.2305 28.5132 22.4055C28.3132 22.5805 28.2132 22.8346 28.2132 23.168C28.2132 23.4013 28.2882 23.5971 28.4382 23.7555C28.5966 23.9055 28.7882 24.0305 29.0132 24.1305C29.2466 24.2221 29.5716 24.3305 29.9882 24.4555C30.5549 24.6221 31.0174 24.7888 31.3757 24.9555C31.7341 25.1221 32.0424 25.3721 32.3007 25.7055C32.5591 26.0388 32.6882 26.4763 32.6882 27.018C32.6882 27.4846 32.5674 27.918 32.3257 28.318C32.0841 28.718 31.7299 29.0388 31.2632 29.2805C30.7966 29.5138 30.2424 29.6305 29.6007 29.6305ZM38.7054 29.543L36.7804 26.143H35.9554V29.543H34.2054V20.818H37.4804C38.1554 20.818 38.7304 20.9388 39.2054 21.1805C39.6804 21.4138 40.0346 21.7346 40.2679 22.143C40.5096 22.543 40.6304 22.993 40.6304 23.493C40.6304 24.068 40.4638 24.5888 40.1304 25.0555C39.7971 25.5138 39.3013 25.8305 38.6429 26.0055L40.7304 29.543H38.7054ZM35.9554 24.8305H37.4179C37.8929 24.8305 38.2471 24.718 38.4804 24.493C38.7138 24.2596 38.8304 23.9388 38.8304 23.5305C38.8304 23.1305 38.7138 22.8221 38.4804 22.6055C38.2471 22.3805 37.8929 22.268 37.4179 22.268H35.9554V24.8305Z" fill="white"/>
</svg>
