<svg width="80" height="80" viewBox="0 0 120 120" fill="none" xmlns="http://www.w3.org/2000/svg">
<rect width="80" height="80" rx="3.33333" fill="#193896"/>
<path d="M16.1873 40.368C16.1873 39.132 16.4633 38.028 17.0153 37.056C17.5793 36.072 18.3413 35.31 19.3013 34.77C20.2733 34.218 21.3593 33.942 22.5593 33.942C23.9633 33.942 25.1933 34.302 26.2493 35.022C27.3053 35.742 28.0433 36.738 28.4633 38.01H25.5653C25.2773 37.41 24.8693 36.96 24.3413 36.66C23.8253 36.36 23.2253 36.21 22.5413 36.21C21.8093 36.21 21.1553 36.384 20.5793 36.732C20.0153 37.068 19.5713 37.548 19.2473 38.172C18.9353 38.796 18.7793 39.528 18.7793 40.368C18.7793 41.196 18.9353 41.928 19.2473 42.564C19.5713 43.188 20.0153 43.674 20.5793 44.022C21.1553 44.358 21.8093 44.526 22.5413 44.526C23.2253 44.526 23.8253 44.376 24.3413 44.076C24.8693 43.764 25.2773 43.308 25.5653 42.708H28.4633C28.0433 43.992 27.3053 44.994 26.2493 45.714C25.2053 46.422 23.9753 46.776 22.5593 46.776C21.3593 46.776 20.2733 46.506 19.3013 45.966C18.3413 45.414 17.5793 44.652 17.0153 43.68C16.4633 42.708 16.1873 41.604 16.1873 40.368ZM34.9537 46.794C34.0777 46.794 33.2857 46.644 32.5777 46.344C31.8817 46.044 31.3297 45.612 30.9217 45.048C30.5137 44.484 30.3037 43.818 30.2917 43.05H32.9917C33.0277 43.566 33.2077 43.974 33.5317 44.274C33.8677 44.574 34.3237 44.724 34.8997 44.724C35.4877 44.724 35.9497 44.586 36.2857 44.31C36.6217 44.022 36.7897 43.65 36.7897 43.194C36.7897 42.822 36.6757 42.516 36.4477 42.276C36.2197 42.036 35.9317 41.85 35.5837 41.718C35.2477 41.574 34.7797 41.418 34.1797 41.25C33.3637 41.01 32.6977 40.776 32.1817 40.548C31.6777 40.308 31.2397 39.954 30.8677 39.486C30.5077 39.006 30.3277 38.37 30.3277 37.578C30.3277 36.834 30.5137 36.186 30.8857 35.634C31.2577 35.082 31.7797 34.662 32.4517 34.374C33.1237 34.074 33.8917 33.924 34.7557 33.924C36.0517 33.924 37.1017 34.242 37.9057 34.878C38.7217 35.502 39.1717 36.378 39.2557 37.506H36.4837C36.4597 37.074 36.2737 36.72 35.9257 36.444C35.5897 36.156 35.1397 36.012 34.5757 36.012C34.0837 36.012 33.6877 36.138 33.3877 36.39C33.0997 36.642 32.9557 37.008 32.9557 37.488C32.9557 37.824 33.0637 38.106 33.2797 38.334C33.5077 38.55 33.7837 38.73 34.1077 38.874C34.4437 39.006 34.9117 39.162 35.5117 39.342C36.3277 39.582 36.9937 39.822 37.5097 40.062C38.0257 40.302 38.4697 40.662 38.8417 41.142C39.2137 41.622 39.3997 42.252 39.3997 43.032C39.3997 43.704 39.2257 44.328 38.8777 44.904C38.5297 45.48 38.0197 45.942 37.3477 46.29C36.6757 46.626 35.8777 46.794 34.9537 46.794ZM48.0644 46.668L45.2924 41.772H44.1044V46.668H41.5844V34.104H46.3004C47.2724 34.104 48.1004 34.278 48.7844 34.626C49.4684 34.962 49.9784 35.424 50.3144 36.012C50.6624 36.588 50.8364 37.236 50.8364 37.956C50.8364 38.784 50.5964 39.534 50.1164 40.206C49.6364 40.866 48.9224 41.322 47.9744 41.574L50.9804 46.668H48.0644ZM44.1044 39.882H46.2104C46.8944 39.882 47.4044 39.72 47.7404 39.396C48.0764 39.06 48.2444 38.598 48.2444 38.01C48.2444 37.434 48.0764 36.99 47.7404 36.678C47.4044 36.354 46.8944 36.192 46.2104 36.192H44.1044V39.882ZM57.5077 34.104C58.8277 34.104 59.9857 34.362 60.9817 34.878C61.9897 35.394 62.7637 36.132 63.3037 37.092C63.8557 38.04 64.1317 39.144 64.1317 40.404C64.1317 41.664 63.8557 42.768 63.3037 43.716C62.7637 44.652 61.9897 45.378 60.9817 45.894C59.9857 46.41 58.8277 46.668 57.5077 46.668H53.1157V34.104H57.5077ZM57.4177 44.526C58.7377 44.526 59.7577 44.166 60.4777 43.446C61.1977 42.726 61.5577 41.712 61.5577 40.404C61.5577 39.096 61.1977 38.076 60.4777 37.344C59.7577 36.6 58.7377 36.228 57.4177 36.228H55.6357V44.526H57.4177Z" fill="white"/>
<path d="M40 4L40.8981 6.76393H43.8042L41.4531 8.47214L42.3511 11.2361L40 9.52786L37.6489 11.2361L38.5469 8.47214L36.1958 6.76393H39.1019L40 4Z" fill="#F7D04C"/>
<path d="M40 66L40.8981 68.7639H43.8042L41.4531 70.4721L42.3511 73.2361L40 71.5279L37.6489 73.2361L38.5469 70.4721L36.1958 68.7639H39.1019L40 66Z" fill="#F7D04C"/>
<path d="M58 9L58.8981 11.7639H61.8042L59.4531 13.4721L60.3511 16.2361L58 14.5279L55.6489 16.2361L56.5469 13.4721L54.1958 11.7639H57.1019L58 9Z" fill="#F7D04C"/>
<path d="M58 61L58.8981 63.7639H61.8042L59.4531 65.4721L60.3511 68.2361L58 66.5279L55.6489 68.2361L56.5469 65.4721L54.1958 63.7639H57.1019L58 61Z" fill="#F7D04C"/>
<path d="M68 21L68.8981 23.7639H71.8042L69.4531 25.4721L70.3511 28.2361L68 26.5279L65.6489 28.2361L66.5469 25.4721L64.1958 23.7639H67.1019L68 21Z" fill="#F7D04C"/>
<path d="M68 51L68.8981 53.7639H71.8042L69.4531 55.4721L70.3511 58.2361L68 56.5279L65.6489 58.2361L66.5469 55.4721L64.1958 53.7639H67.1019L68 51Z" fill="#F7D04C"/>
<path d="M12 21L12.8981 23.7639H15.8042L13.4531 25.4721L14.3511 28.2361L12 26.5279L9.64886 28.2361L10.5469 25.4721L8.19577 23.7639H11.1019L12 21Z" fill="#F7D04C"/>
<path d="M12 51L12.8981 53.7639H15.8042L13.4531 55.4721L14.3511 58.2361L12 56.5279L9.64886 58.2361L10.5469 55.4721L8.19577 53.7639H11.1019L12 51Z" fill="#F7D04C"/>
<path d="M7 35L7.89806 37.7639H10.8042L8.45308 39.4721L9.35114 42.2361L7 40.5279L4.64886 42.2361L5.54692 39.4721L3.19577 37.7639H6.10194L7 35Z" fill="#F7D04C"/>
<path d="M73 36L73.8981 38.7639H76.8042L74.4531 40.4721L75.3511 43.2361L73 41.5279L70.6489 43.2361L71.5469 40.4721L69.1958 38.7639H72.1019L73 36Z" fill="#F7D04C"/>
<path d="M23 9L23.8981 11.7639H26.8042L24.4531 13.4721L25.3511 16.2361L23 14.5279L20.6489 16.2361L21.5469 13.4721L19.1958 11.7639H22.1019L23 9Z" fill="#F7D04C"/>
<path d="M23 61L23.8981 63.7639H26.8042L24.4531 65.4721L25.3511 68.2361L23 66.5279L20.6489 68.2361L21.5469 65.4721L19.1958 63.7639H22.1019L23 61Z" fill="#F7D04C"/>
</svg>
